# xmcd
#
# Track frame offsets:
# 150
# 20201
# 54652
# 80124
# 114645
# 138789
# 155519
# 178232
# 198941
# 223700
# 243206
# 260234
# 275250
# 299160
#
# Disc length: 4348 seconds
#
#
# Revision: 0
# Processed by: cddbd v1.5.1PL0 Copyright (c) Steve Scherf et al.
# Submitted via: FreeRIP 2.942 
#
DISCID=e010fa0e
DTITLE=Various Artist - buddha bar [buddha's dinner 2]
DYEAR=2000
DGENRE=Jazz
TTITLE0=trumpet thing - need you [right now] ambient mix
TTITLE1=omar faruk tekbilek - i love you
TTITLE2=consuelo luz - los biblicos [the nightingales]
TTITLE3=karunesh - alibaba
TTITLE4=deepak chopra feat. demi moore - desire
TTITLE5=govinda - in through time
TTITLE6=oliver shanti and friends - onon mweng [rainbird]
TTITLE7=atman - spirit
TTITLE8=deadbeats - funky for you
TTITLE9=de-phazz feat. pat appleton - mambo craze
TTITLE10=nino - amor amor
TTITLE11=sa trincha - smell of paradise
TTITLE12=intro - farruca
TTITLE13=funky lowlives - nata bossa
EXTD=YEAR: 2000
EXTT0=
EXTT1=
EXTT2=
EXTT3=
EXTT4=
EXTT5=
EXTT6=
EXTT7=
EXTT8=
EXTT9=
EXTT10=
EXTT11=
EXTT12=
EXTT13=
PLAYORDER=
